<?xml version="1.0" standalone="no"?>
<!DOCTYPE svg PUBLIC "-//W3C//DTD SVG 20010904//EN"
 "http://www.w3.org/TR/2001/REC-SVG-20010904/DTD/svg10.dtd">
<svg version="1.0" xmlns="http://www.w3.org/2000/svg"
 width="1920.000000pt" height="1280.000000pt" viewBox="0 0 1920.000000 1280.000000"
 preserveAspectRatio="xMidYMid meet">

<g transform="translate(0.000000,1280.000000) scale(0.100000,-0.100000)"
fill="#000000" stroke="none">
<path d="M0 6400 l0 -6400 6415 0 c3528 0 6415 4 6415 8 0 5 -14 28 -30 50
-16 23 -30 48 -30 55 0 7 -7 23 -16 35 -21 30 -63 167 -80 262 -3 14 -9 41
-14 60 -12 47 -23 128 -22 165 0 17 1 55 2 85 2 94 -12 134 -57 163 -7 4 -18
13 -25 20 -7 7 -25 20 -39 29 -33 21 -94 76 -232 208 -158 151 -184 180 -207
228 -11 23 -25 42 -30 42 -6 0 -10 5 -10 10 0 6 -12 29 -26 52 -14 23 -27 46
-28 52 -1 6 -7 20 -13 31 -6 11 -24 59 -39 105 -15 47 -31 90 -35 95 -4 6 -14
55 -23 110 -9 55 -19 114 -22 130 -13 67 -13 203 0 251 22 81 120 273 155 304
4 3 22 27 41 53 19 27 55 70 80 96 25 26 78 82 117 124 75 79 87 109 54 126
-24 13 -105 -27 -170 -85 -25 -22 -70 -55 -99 -72 -30 -18 -81 -54 -115 -81
-73 -56 -95 -65 -114 -50 -10 9 -20 9 -37 1 -41 -19 -80 -78 -179 -277 -43
-84 -89 -226 -103 -315 -3 -19 -8 -44 -11 -55 -10 -31 -12 -50 -19 -186 -8
-152 8 -322 41 -429 13 -41 26 -91 30 -110 4 -19 13 -45 21 -57 8 -12 14 -37
14 -55 0 -23 7 -38 21 -48 21 -15 50 -58 31 -46 -6 4 -8 -2 -5 -14 3 -12 8
-18 11 -15 10 10 41 -69 42 -104 0 -29 -3 -33 -22 -28 -14 4 -26 0 -34 -11
-16 -20 -18 -58 -4 -67 6 -3 10 -11 10 -16 0 -6 -4 -7 -10 -4 -22 13 -8 -15
32 -66 24 -30 36 -48 27 -42 -9 7 -18 10 -22 7 -3 -3 -16 -1 -29 6 -19 9 -21
9 -8 -2 8 -7 23 -25 33 -40 9 -15 40 -46 68 -68 30 -23 44 -40 34 -40 -9 0
-13 -5 -10 -10 9 -15 1 -12 -23 7 -11 10 -30 25 -42 33 -13 8 -56 56 -97 105
-41 50 -110 129 -153 176 -44 47 -90 99 -102 115 -12 16 -26 34 -31 39 -5 6
-28 41 -52 78 -23 37 -50 76 -58 85 -8 9 -37 58 -64 107 -27 50 -59 106 -71
125 -12 19 -25 42 -28 50 -3 8 -16 38 -29 65 -12 28 -25 61 -29 75 -4 14 -19
60 -32 103 -13 42 -27 92 -29 110 -17 109 -19 144 -19 257 0 69 5 154 11 190
7 36 15 85 18 110 7 50 22 105 38 135 6 11 12 28 14 38 6 33 81 177 148 282
17 28 38 61 47 75 21 34 10 190 -13 190 -5 0 -9 9 -9 20 0 11 -4 20 -10 20 -5
0 -14 19 -21 43 -6 23 -18 62 -26 85 -8 24 -15 52 -16 63 -1 10 -6 19 -11 19
-5 0 -7 3 -3 6 3 3 1 17 -4 31 -12 33 -19 80 -25 178 -7 118 -14 234 -18 285
-2 25 3 79 10 120 7 41 15 109 18 150 2 41 9 86 14 100 5 14 12 43 15 66 6 43
45 165 56 174 3 3 8 16 9 30 2 14 7 29 12 34 5 5 6 15 3 22 -3 8 0 14 7 14 6
0 8 5 5 10 -3 6 -1 10 4 10 6 0 11 6 11 14 0 19 40 104 65 139 44 62 102 134
138 172 20 22 37 44 37 49 0 4 6 6 14 3 10 -4 16 2 18 16 2 12 9 21 16 20 6
-2 12 3 12 11 0 7 11 25 25 39 18 18 22 27 13 30 -7 3 -3 6 10 6 12 1 25 8 29
17 3 8 16 20 29 24 14 6 21 15 18 23 -3 9 9 18 37 26 24 7 52 19 63 26 12 8
41 17 65 21 24 4 52 15 63 26 10 10 20 18 23 18 3 0 8 1 13 1 4 1 13 2 19 3 7
0 13 5 13 11 1 5 -49 20 -110 33 -137 28 -161 37 -167 62 -4 16 -14 20 -48 20
-26 0 -47 -6 -55 -15 -10 -13 -53 -15 -265 -15 -196 0 -286 -4 -401 -20 -205
-28 -246 -37 -349 -78 -90 -35 -110 -47 -199 -110 -47 -33 -69 -36 -104 -13
-27 17 -16 80 23 137 21 30 41 51 46 48 5 -3 9 -1 9 3 0 5 27 38 59 73 33 36
63 75 66 87 3 14 -3 39 -15 63 -21 42 -27 105 -10 115 13 8 43 74 65 145 18
59 29 250 14 250 -5 0 -9 14 -9 31 0 17 -5 40 -11 51 -8 15 -8 22 1 28 9 5 9
9 1 14 -8 5 -8 13 1 29 7 12 13 29 14 37 1 8 4 35 7 60 7 60 18 113 27 125 4
6 10 22 14 38 3 15 11 27 16 27 6 0 10 6 10 14 0 31 40 24 90 -15 28 -22 50
-43 50 -48 0 -4 12 -13 28 -20 15 -7 68 -37 117 -66 50 -30 142 -75 205 -101
122 -49 140 -59 140 -79 0 -23 -103 -113 -165 -146 -33 -18 -75 -47 -93 -66
-43 -45 -73 -109 -63 -137 14 -37 28 -27 45 34 27 96 96 157 96 84 0 -14 6
-24 15 -24 25 0 64 23 70 41 8 24 37 33 50 15 8 -10 16 -12 26 -5 8 5 10 9 4
9 -5 1 2 7 17 15 15 8 30 25 34 37 8 27 28 48 46 48 7 0 34 11 61 24 50 26 98
40 133 39 22 0 74 -30 74 -43 0 -4 12 -10 28 -13 15 -3 38 -10 52 -15 14 -5
27 -9 30 -8 3 0 19 -9 34 -22 16 -12 32 -18 35 -13 7 10 109 -13 124 -28 5 -5
15 -7 21 -5 7 3 26 -1 42 -7 34 -14 39 -15 198 -24 107 -6 124 -4 178 16 32
12 61 19 65 16 8 -9 83 33 106 58 10 11 16 14 12 8 -4 -8 0 -13 9 -13 9 0 16
4 16 9 0 5 17 12 38 16 20 4 42 11 49 17 7 5 17 7 23 3 5 -3 10 -2 10 4 0 5
16 8 35 6 21 -2 33 1 29 7 -3 5 2 12 12 14 15 4 19 14 18 43 -2 33 2 39 27 48
22 8 29 8 29 0 0 -7 5 -5 10 4 7 13 22 15 74 12 39 -3 66 0 71 6 3 6 15 11 27
11 14 0 18 5 14 15 -3 8 0 15 7 15 6 0 1 7 -12 16 -19 14 -25 14 -32 3 -6 -10
-9 -11 -9 -1 0 6 -5 12 -11 12 -5 0 -7 -4 -4 -10 3 -6 -1 -7 -10 -4 -20 8 -38
41 -26 48 5 4 11 0 14 -6 3 -10 9 -10 26 0 12 7 26 10 31 7 4 -3 10 0 12 6 2
5 22 13 44 16 37 5 43 2 87 -41 26 -25 51 -46 55 -46 17 1 53 40 46 51 -4 8
-3 9 4 5 7 -4 12 -1 12 6 -1 7 -21 29 -47 48 -25 19 -53 42 -62 51 -9 9 -30
20 -47 23 -18 4 -40 16 -50 27 -9 10 -23 19 -30 19 -7 0 -21 11 -32 25 -11 14
-27 25 -36 25 -9 0 -15 6 -14 13 2 6 -4 11 -12 9 -12 -3 -12 -1 -3 9 10 10 9
17 -5 33 -16 20 -16 20 1 7 10 -8 17 -9 17 -3 0 6 -4 14 -10 17 -5 3 -10 13
-10 21 0 8 4 13 9 10 4 -3 1 15 -7 39 -9 29 -20 45 -31 45 -9 0 -26 11 -39 24
-22 24 -23 30 -20 184 3 148 2 161 -17 182 -16 17 -19 32 -16 69 3 25 5 84 5
131 0 76 -3 93 -36 167 -21 49 -61 114 -97 158 -59 73 -93 133 -105 187 -6 25
-3 28 29 34 35 6 141 -1 170 -12 8 -4 15 -2 15 4 0 7 11 7 33 1 35 -9 199 -5
217 6 5 3 10 2 10 -3 0 -6 31 -9 70 -9 39 1 70 0 70 -3 0 -3 32 -6 72 -8 39
-1 77 -7 83 -12 7 -6 17 -10 21 -9 12 3 105 -11 124 -18 8 -4 26 -7 40 -9 14
-1 27 -3 30 -4 3 -1 10 -3 15 -4 31 -6 132 -40 143 -49 7 -5 15 -7 19 -4 3 4
12 2 20 -4 7 -6 13 -9 13 -6 0 3 37 -13 83 -36 45 -23 99 -48 120 -56 20 -8
37 -18 37 -23 0 -4 6 -8 14 -8 7 0 30 -11 50 -25 45 -31 142 -63 171 -57 16 3
22 10 20 25 -1 12 -3 30 -4 39 0 9 -13 30 -27 45 -130 143 -151 169 -176 226
-44 98 -18 197 79 294 28 29 59 53 67 53 9 0 16 5 16 10 0 6 7 10 15 10 8 0
23 4 33 9 58 32 147 72 209 94 40 15 80 30 90 36 41 21 174 71 190 71 20 0
108 44 134 66 8 8 23 14 31 14 9 0 18 4 20 8 2 4 18 18 36 31 18 13 31 25 29
27 -2 3 11 21 29 41 19 20 34 43 34 50 0 22 45 86 85 120 20 18 33 33 28 33
-4 0 11 18 34 39 24 21 40 41 36 44 -3 4 1 7 10 7 9 0 17 3 17 8 0 9 54 65
172 177 99 94 107 102 201 175 121 95 161 125 172 125 5 0 40 21 76 48 37 26
70 47 74 47 4 0 19 8 33 19 15 10 56 28 92 40 36 13 72 25 80 28 15 6 68 14
103 16 9 1 17 4 17 7 0 9 132 2 185 -9 109 -24 112 -24 134 -4 12 11 23 33 25
50 1 16 6 35 9 40 7 12 -17 68 -41 96 -8 9 -12 17 -9 17 4 0 -18 40 -48 90
-30 49 -55 94 -55 100 0 6 -11 26 -25 44 -14 18 -25 40 -25 49 0 8 -4 17 -9
19 -11 4 -101 125 -101 135 0 4 -17 23 -38 42 -21 20 -47 50 -58 66 -23 33
-39 115 -22 115 6 0 8 11 6 25 -3 13 -2 26 1 27 3 2 21 21 40 43 50 58 122 72
236 49 17 -4 47 -7 68 -7 20 -1 37 -4 37 -9 0 -4 6 -5 13 -3 21 8 77 13 77 6
0 -9 254 -4 292 7 80 21 297 -7 403 -53 17 -7 48 -18 70 -25 22 -7 55 -21 73
-32 18 -10 37 -18 43 -18 6 0 40 -14 76 -30 35 -17 67 -30 70 -30 3 0 29 -11
57 -24 90 -42 154 -66 175 -66 12 0 21 -4 21 -8 0 -5 19 -17 43 -27 23 -9 70
-30 104 -46 35 -16 67 -29 73 -29 6 0 16 -4 23 -10 65 -53 77 -60 77 -49 0 8
7 3 16 -9 8 -12 20 -22 26 -22 6 0 18 -7 27 -15 9 -8 49 -40 90 -70 86 -64
151 -122 151 -135 0 -5 7 -7 15 -4 8 4 15 1 15 -5 0 -6 15 -28 33 -47 17 -20
36 -42 40 -50 4 -8 15 -14 22 -14 8 0 15 -5 15 -11 0 -14 25 -39 39 -39 6 0
11 -7 11 -15 0 -8 6 -15 14 -15 7 0 16 -9 19 -21 3 -12 10 -18 16 -14 7 3 11
-2 11 -14 0 -12 4 -21 8 -21 5 0 15 -12 23 -27 8 -16 29 -43 47 -62 17 -19 32
-40 32 -48 0 -7 4 -13 9 -13 5 0 15 -16 21 -35 7 -21 16 -32 23 -28 6 4 8 0 4
-9 -6 -17 17 -55 46 -77 15 -11 16 -15 6 -22 -11 -7 -10 -9 5 -9 13 0 17 -5
13 -20 -3 -11 -1 -18 3 -15 5 3 11 1 15 -5 3 -5 0 -10 -7 -10 -10 -1 -9 -4 2
-13 8 -7 17 -21 18 -32 4 -19 23 -65 40 -95 24 -41 32 -61 32 -79 0 -11 7 -26
15 -34 11 -12 12 -17 2 -20 -6 -3 -7 -6 -1 -6 6 -1 9 -14 6 -33 -4 -26 -2 -30
12 -25 9 4 14 3 11 -2 -6 -12 15 -61 27 -61 4 0 8 -9 8 -20 0 -11 6 -20 14
-20 8 0 22 -7 30 -16 15 -14 16 165 16 1970 l0 1986 -9600 0 -9600 0 0 -6400z
m11087 1713 c4 -10 17 -35 30 -55 13 -21 22 -41 21 -45 -1 -5 8 -27 21 -51 12
-24 23 -58 25 -75 2 -18 8 -45 14 -60 7 -16 12 -37 12 -48 0 -11 8 -32 18 -46
9 -15 11 -24 5 -20 -8 5 -13 2 -13 -8 0 -8 7 -18 15 -21 11 -5 12 -10 3 -24
-7 -10 -8 -25 -3 -36 10 -22 12 -30 14 -45 0 -6 8 -9 16 -5 9 3 15 0 15 -8 0
-8 -10 -16 -21 -19 -14 -4 -20 -11 -16 -21 4 -9 -1 -20 -11 -25 -15 -9 -15
-11 3 -12 11 -1 27 -2 35 -3 8 0 18 3 21 8 8 10 31 -56 35 -99 l2 -30 -13 30
c-7 16 -11 36 -8 45 4 12 3 13 -5 1 -7 -9 -7 -23 -1 -38 5 -14 9 -25 9 -27 0
-1 -9 -2 -21 -2 -16 0 -19 5 -14 23 5 22 5 23 -15 6 -22 -19 -28 -39 -7 -27 6
4 4 -2 -7 -14 -18 -21 -18 -21 3 -17 18 3 20 1 11 -15 -13 -25 -32 -36 -23
-14 5 13 2 15 -15 9 -14 -4 -22 -2 -22 5 0 6 5 8 12 4 8 -5 9 0 6 14 -4 12 -2
22 3 22 5 0 9 7 9 15 0 8 5 15 10 15 6 0 10 6 10 14 0 9 -9 13 -26 11 -18 -2
-24 1 -20 12 3 8 0 13 -7 11 -12 -3 -17 3 -17 22 0 5 7 7 15 4 17 -7 19 4 6
25 -7 12 -12 11 -30 -1 -11 -8 -18 -18 -13 -22 4 -5 -2 -6 -12 -4 -10 1 -21
-3 -24 -11 -3 -9 0 -11 8 -6 9 6 9 3 1 -11 -19 -33 -51 -67 -57 -61 -4 3 1 13
10 22 9 9 16 19 16 22 0 6 -65 -48 -66 -56 -2 -18 -18 -68 -26 -84 -7 -14 -13
-16 -23 -7 -9 8 -14 6 -19 -6 -5 -13 -9 -14 -21 -4 -8 7 -15 18 -15 26 0 7 -8
18 -17 24 -16 10 -15 11 5 7 12 -3 22 -1 22 4 0 5 -4 9 -10 9 -5 0 -10 7 -10
15 0 9 -6 12 -15 9 -8 -4 -12 -10 -9 -16 3 -5 -2 -8 -12 -6 -11 2 -23 -7 -31
-22 -7 -14 -13 -20 -13 -15 0 6 -4 4 -8 -2 -6 -10 -12 -9 -28 3 -15 12 -15 14
-2 11 9 -3 24 1 35 8 10 8 14 15 8 15 -5 0 1 7 15 15 25 13 24 14 -12 11 -21
-2 -35 1 -32 5 3 5 -2 12 -10 15 -9 3 -16 10 -16 16 0 5 4 6 10 3 6 -3 7 1 4
9 -3 9 -10 13 -16 10 -5 -3 -4 3 3 15 8 11 16 16 20 10 3 -6 11 -4 19 5 7 9
15 14 19 12 4 -3 8 7 9 22 2 25 2 25 -13 6 -16 -19 -16 -19 -6 1 5 11 18 28
28 37 23 21 20 98 -4 98 -8 0 -11 5 -8 11 4 6 13 8 21 5 20 -8 17 7 -6 27 -16
14 -20 14 -20 2 0 -20 -37 -39 -43 -22 -4 9 -8 8 -16 -3 -5 -8 -13 -11 -18 -7
-4 5 -2 12 5 16 7 4 12 14 10 22 -2 8 3 13 10 11 8 -1 11 1 8 6 -6 11 99 114
107 105 4 -3 7 -1 7 5 0 8 13 10 39 7 29 -4 42 0 55 14 10 11 25 17 34 14 9
-4 13 -2 8 5 -3 6 -2 13 4 17 6 4 8 11 5 16 -3 5 0 6 8 3 18 -7 62 30 53 44
-4 7 -14 12 -22 12 -10 0 -12 5 -7 13 13 20 12 37 -3 65 -8 15 -14 35 -14 44
0 9 -4 20 -10 23 -13 8 -13 45 0 45 6 0 14 -8 17 -17z m405 -22 c22 -26 43
-65 30 -57 -6 3 -12 0 -15 -6 -6 -18 -34 0 -66 42 -14 19 -21 31 -14 27 6 -4
14 -3 18 3 10 16 29 12 47 -9z m228 -41 c0 -5 -2 -10 -4 -10 -3 0 -8 5 -11 10
-3 6 -1 10 4 10 6 0 11 -4 11 -10z m-237 -44 c18 7 42 -26 53 -71 5 -24 4 -28
-6 -18 -7 6 -18 9 -26 6 -14 -5 -1 -42 66 -175 29 -58 35 -79 26 -89 -8 -9 -8
-10 2 -5 8 5 12 0 12 -13 0 -12 6 -21 13 -22 6 0 -9 -7 -36 -16 -47 -16 -70
-12 -50 8 5 5 20 11 32 12 24 1 23 8 -16 94 -20 42 -29 54 -43 50 -11 -3 -21
1 -24 9 -3 8 1 14 9 14 22 0 19 9 -24 96 -40 79 -44 97 -16 74 13 -11 13 -8
-1 26 -13 32 -14 36 -1 26 8 -7 21 -10 30 -6z m-40 -119 c-7 -11 -23 12 -23
33 1 12 4 11 15 -4 8 -10 12 -23 8 -29z m137 -38 c0 -6 -4 -7 -10 -4 -5 3 -10
11 -10 16 0 6 5 7 10 4 6 -3 10 -11 10 -16z m-237 -75 c-2 -7 0 -15 6 -19 6
-3 11 -11 11 -16 0 -5 -10 0 -22 12 -16 14 -19 23 -11 26 9 3 8 11 -3 31 l-16
27 20 -24 c11 -14 18 -30 15 -37z m280 -30 c5 -30 -8 -20 -18 15 -4 15 -3 21
3 17 5 -3 12 -17 15 -32z m-78 -110 c-10 -7 -22 -11 -28 -7 -5 3 1 14 14 24
16 12 25 14 28 7 2 -6 -4 -17 -14 -24z m-285 -2 c0 -15 -2 -15 -10 -2 -13 20
-13 33 0 25 6 -3 10 -14 10 -23z m368 -57 c-3 -3 -9 2 -12 12 -6 14 -5 15 5 6
7 -7 10 -15 7 -18z m-28 2 c0 -17 -29 -57 -41 -57 -14 0 -11 19 9 45 19 27 32
32 32 12z m-322 -57 c15 0 15 -2 2 -10 -15 -9 -30 4 -29 25 0 6 3 4 6 -2 2 -7
12 -13 21 -13z m331 -77 c-7 -10 -14 -19 -15 -21 -1 -1 -4 6 -7 18 -4 15 0 20
15 20 18 0 19 -2 7 -17z m-809 -73 c0 -5 -2 -10 -4 -10 -3 0 -8 5 -11 10 -3 6
-1 10 4 10 6 0 11 -4 11 -10z m270 -15 c-7 -9 -15 -13 -17 -11 -7 7 7 26 19
26 6 0 6 -6 -2 -15z m241 -92 c13 -16 12 -17 -3 -4 -17 13 -22 21 -14 21 2 0
10 -8 17 -17z m1271 -302 c-5 -3 -18 -29 -28 -58 -15 -40 -23 -50 -34 -43 -16
10 -6 40 38 104 21 31 28 35 30 21 2 -10 0 -20 -6 -24z m-2334 -153 c7 -7 12
-20 12 -29 0 -21 -53 -66 -58 -50 -2 6 -10 11 -17 11 -20 0 -30 41 -14 51 8 5
10 9 6 9 -5 0 -5 5 -2 10 9 14 58 13 73 -2z m549 -260 c-7 -5 3 -5 22 -1 23 4
32 3 28 -5 -4 -6 16 -24 45 -42 55 -33 98 -69 98 -80 0 -17 -41 -2 -153 54
-120 61 -150 86 -105 86 22 1 22 1 -4 16 -44 23 -33 24 26 1 34 -14 50 -25 43
-29z m1030 15 c7 -19 -35 -26 -52 -9 -13 13 -13 15 7 19 30 5 41 3 45 -10z
m1024 -10 c13 -16 12 -17 -3 -4 -17 13 -22 21 -14 21 2 0 10 -8 17 -17z
m-1888 -40 c-7 -2 -19 -2 -25 0 -7 3 -2 5 12 5 14 0 19 -2 13 -5z m307 -17 c8
-2 -39 -4 -105 -4 -66 0 -133 3 -150 7 -16 4 31 5 105 3 74 -2 142 -5 150 -6z
m228 -294 c3 -9 -2 -13 -14 -10 -9 1 -19 9 -22 16 -3 9 2 13 14 10 9 -1 19 -9
22 -16z m1129 -4 c-3 -8 -6 -5 -6 6 -1 11 2 17 5 13 3 -3 4 -12 1 -19z m-1088
-15 c-10 -11 -14 -11 -20 -1 -10 17 -2 28 17 21 11 -4 12 -8 3 -20z m41 7 c0
-5 -4 -10 -10 -10 -5 0 -10 5 -10 10 0 6 5 10 10 10 6 0 10 -4 10 -10z"/>
<path d="M11175 7573 c-14 -65 -14 -63 6 -52 13 6 19 6 19 -1 0 -5 7 -10 15
-10 16 0 19 9 9 34 -5 14 -9 14 -22 4 -13 -11 -15 -9 -10 15 7 36 -10 46 -17
10z"/>
<path d="M11480 7981 c0 -6 4 -13 10 -16 6 -3 7 1 4 9 -7 18 -14 21 -14 7z"/>
<path d="M11498 7943 c7 -3 16 -2 19 1 4 3 -2 6 -13 5 -11 0 -14 -3 -6 -6z"/>
<path d="M18492 8539 c10 -17 10 -23 1 -26 -7 -3 -13 -13 -13 -24 0 -13 5 -17
17 -12 13 5 15 2 8 -18 -4 -13 -7 -35 -6 -49 1 -14 1 -55 1 -92 -1 -36 4 -95
10 -130 7 -35 13 -132 14 -217 2 -125 5 -155 18 -165 15 -11 17 -37 3 -70 -4
-10 -4 -21 2 -25 15 -10 24 -41 10 -35 -8 3 -12 -10 -12 -40 0 -24 3 -42 8
-39 8 5 0 -184 -9 -198 -3 -5 2 -12 11 -15 9 -4 14 -13 11 -20 -3 -8 -1 -14 3
-14 17 0 52 -82 49 -116 -1 -19 -6 -34 -11 -34 -4 0 -6 -4 -3 -8 2 -4 -10 -14
-27 -21 -18 -7 -48 -21 -68 -32 -20 -10 -44 -19 -53 -19 -9 0 -16 -4 -16 -10
0 -5 -3 -9 -7 -8 -20 6 -73 -37 -79 -62 0 -3 -4 -13 -7 -22 -15 -40 -16 -49
-6 -75 12 -32 21 -78 21 -115 1 -16 4 -28 7 -28 4 0 8 -42 9 -92 6 -258 10
-278 50 -295 15 -7 67 -15 115 -18 l88 -7 53 42 c45 34 56 49 66 88 16 65 22
178 11 217 -6 23 -5 37 2 44 8 8 9 14 1 19 -5 4 -12 50 -14 102 -4 123 -7 168
-10 178 -1 4 -1 16 -1 28 1 11 -5 26 -12 33 -17 13 -11 48 11 70 7 8 11 24 9
35 -3 12 -8 32 -11 45 -3 14 1 44 9 68 13 36 13 67 5 185 -14 201 -21 249 -33
241 -6 -4 -8 5 -4 25 4 20 1 34 -7 42 -10 8 -13 29 -9 76 3 36 1 73 -3 82 -9
19 -15 49 -15 75 0 9 -3 17 -7 17 -4 0 -8 33 -9 73 -3 111 -9 156 -24 175 -22
26 -46 74 -53 105 -3 15 -13 27 -22 27 -23 0 -44 25 -44 54 0 19 -5 26 -20 26
-18 0 -19 -2 -8 -21z"/>
<path d="M18067 7027 c-7 -7 -28 -19 -47 -28 -19 -9 -58 -27 -87 -40 -31 -14
-59 -36 -69 -54 -26 -42 -27 -150 -2 -190 10 -16 18 -40 18 -52 0 -13 4 -23 9
-23 7 0 19 -46 35 -130 6 -30 19 -56 44 -82 14 -16 23 -28 19 -28 -15 0 61
-70 88 -81 40 -16 75 -20 75 -8 0 5 8 9 18 9 11 0 27 9 37 20 10 11 20 18 22
16 2 -2 16 8 30 22 18 17 27 41 32 79 4 29 4 53 -1 53 -4 0 -8 14 -8 31 0 17
-4 38 -9 48 -5 9 -6 23 -1 30 4 8 2 28 -6 47 -8 18 -14 47 -14 64 0 16 -3 30
-7 30 -8 0 -12 43 -14 123 0 20 -4 37 -9 37 -5 0 -14 16 -21 35 -7 19 -17 35
-22 35 -6 0 -15 7 -21 15 -16 22 -73 36 -89 22z"/>
<path d="M19174 6938 c-12 -57 -10 -110 7 -177 l17 -66 1 138 c1 132 -9 174
-25 105z"/>
<path d="M17152 6783 c-24 -36 -43 -124 -36 -165 6 -36 31 -95 47 -117 6 -7
12 -18 13 -25 6 -32 34 -148 48 -201 18 -62 18 -72 13 -235 -3 -92 -4 -95 -30
-108 -15 -7 -27 -18 -27 -23 0 -6 -4 -8 -9 -5 -5 3 -20 -3 -34 -14 -14 -11
-29 -20 -34 -20 -15 0 -33 -43 -29 -70 8 -60 19 -101 27 -106 5 -3 7 -9 4 -14
-3 -5 3 -15 12 -22 10 -7 24 -25 32 -40 12 -23 11 -31 -8 -71 l-21 -44 -58 -1
c-31 -1 -82 -4 -113 -8 -51 -6 -57 -4 -75 17 -50 62 -102 73 -159 35 -21 -14
-42 -26 -48 -26 -5 0 -20 -11 -32 -24 -27 -29 -41 -33 -75 -22 -41 14 -60 37
-60 72 0 54 -27 106 -75 142 -41 31 -46 33 -83 22 -22 -5 -43 -17 -46 -25 -3
-9 -15 -19 -27 -23 -19 -7 -44 -55 -53 -102 -4 -20 42 -131 64 -155 10 -11 28
-51 39 -90 27 -96 49 -154 71 -190 22 -38 34 -101 20 -110 -15 -9 -12 -25 5
-25 8 0 15 -4 15 -10 0 -14 76 -60 98 -60 20 0 45 24 55 52 3 9 27 44 53 77
60 78 139 122 276 156 109 27 167 33 188 20 10 -6 11 -3 6 16 -18 58 -18 107
-1 142 14 31 19 34 43 28 19 -5 34 -24 59 -72 37 -74 45 -124 27 -167 -11 -28
-16 -30 -47 -25 -27 4 -39 0 -60 -18 -14 -13 -33 -31 -43 -39 -18 -14 -18 -15
3 -18 14 -2 28 -18 42 -47 11 -24 25 -46 31 -50 7 -4 7 -12 0 -24 -7 -13 -4
-29 9 -54 10 -20 21 -49 24 -64 2 -16 11 -43 18 -61 13 -30 12 -35 -4 -46 -23
-18 -22 -63 4 -105 11 -18 18 -36 15 -39 -3 -3 2 -10 11 -17 28 -21 12 -37
-21 -20 -30 16 -61 21 -38 6 11 -6 9 -17 -8 -55 -12 -25 -26 -46 -31 -46 -5 0
-7 -10 -5 -22 10 -56 18 -75 32 -75 17 0 17 7 4 41 -21 56 15 73 115 54 52 -9
65 -15 65 -30 0 -16 11 -23 33 -19 5 1 7 -6 5 -16 -3 -13 -12 -17 -33 -15 -17
1 -40 0 -52 -3 -29 -7 -95 -64 -87 -76 3 -5 0 -9 -7 -9 -7 0 -5 -8 6 -20 10
-11 16 -20 13 -20 -4 0 0 -20 7 -45 14 -44 14 -63 -1 -99 -6 -15 -4 -18 8 -14
25 10 74 -21 97 -62 16 -29 18 -40 9 -40 -20 0 -41 -56 -33 -88 9 -36 33 -62
59 -62 12 -1 31 -6 42 -13 22 -12 74 -70 74 -81 0 -4 -40 -4 -90 -1 -85 6 -90
5 -90 -14 0 -25 28 -35 100 -35 73 -1 78 -22 14 -65 -56 -37 -77 -39 -99 -8
-8 12 -21 22 -28 22 -6 0 -19 19 -27 43 -8 23 -18 42 -22 42 -10 0 -4 -84 7
-92 6 -4 1 -8 -11 -8 -13 0 -26 12 -37 35 -18 39 -28 42 -51 20 -8 -8 -17 -15
-21 -15 -14 0 -105 -98 -114 -123 -13 -33 3 -37 20 -4 6 12 20 32 31 44 19 20
22 21 44 6 15 -9 33 -13 50 -9 39 10 96 -3 92 -22 -4 -18 -78 -42 -134 -42
-49 0 -59 -10 -99 -100 -16 -36 -39 -79 -52 -97 -34 -46 -44 -79 -30 -91 13
-10 156 -30 255 -35 l63 -3 -3 55 -3 55 -50 -1 c-27 -1 -51 -6 -53 -13 -7 -20
-32 11 -32 39 0 14 9 46 20 70 11 24 20 49 20 55 0 13 31 31 67 39 16 4 27 -2
39 -20 9 -14 11 -22 5 -19 -6 4 -11 0 -11 -8 0 -9 -8 -16 -17 -17 -16 0 -16
-1 1 -8 14 -5 16 -10 8 -15 -18 -11 -14 -27 6 -24 10 2 17 -3 16 -12 -1 -13
11 -16 54 -17 30 -1 59 -6 65 -12 6 -6 25 -11 42 -11 20 0 40 -9 53 -23 30
-32 28 -36 -16 -35 -45 0 -75 -14 -114 -53 -34 -34 -34 -37 -2 -50 15 -5 24
-12 21 -15 -3 -4 2 -15 12 -25 11 -12 17 -30 14 -47 -4 -23 -3 -24 7 -9 13 20
30 22 30 3 0 -24 -26 -39 -49 -26 -12 6 -21 7 -21 1 0 -5 6 -12 13 -14 8 -4 9
-8 1 -14 -16 -11 -10 -51 9 -66 9 -6 17 -25 19 -42 2 -16 8 -31 13 -31 25 -4
55 -17 55 -25 0 -5 5 -9 11 -9 5 0 7 4 4 10 -3 5 10 3 29 -5 20 -8 42 -15 50
-15 9 0 39 -11 68 -24 46 -20 66 -23 144 -21 52 2 106 10 127 19 33 13 131 37
165 39 13 0 15 10 12 73 -1 23 6 68 14 100 21 82 22 136 9 318 -6 82 -5 116 4
134 27 51 -16 110 -99 137 -63 21 -78 31 -78 55 0 9 -9 25 -19 34 -18 16 -21
16 -51 1 -67 -34 -126 -110 -132 -166 l-3 -34 -24 24 c-33 33 -48 15 -33 -37
7 -22 12 -60 12 -86 0 -38 -3 -46 -19 -46 -22 0 -81 49 -81 66 0 7 -11 11 -25
10 -53 -6 -37 61 31 129 36 37 49 42 59 25 13 -21 27 -9 20 18 -9 37 -21 48
-38 34 -8 -7 -25 -12 -38 -11 -13 0 -37 -3 -52 -7 -27 -6 -28 -5 -21 22 4 16
16 48 26 72 20 45 40 53 74 27 27 -21 30 -19 43 24 12 43 52 81 83 81 10 0 29
-11 41 -24 12 -13 49 -39 81 -58 l59 -35 44 19 c24 10 60 21 81 22 20 2 51 7
68 11 28 6 33 4 40 -16 4 -13 7 -34 5 -47 -4 -34 36 -63 76 -56 46 9 51 -14
19 -87 -27 -62 -32 -95 -18 -116 9 -14 85 -43 114 -43 17 0 19 -4 13 -27 -3
-16 -14 -39 -23 -53 -9 -14 -22 -41 -27 -60 -9 -30 -15 -35 -41 -35 -40 0 -66
-22 -59 -49 26 -97 42 -130 72 -150 18 -12 33 -24 33 -28 0 -4 -12 -16 -27
-27 -67 -50 -122 -104 -117 -112 7 -12 43 -2 64 16 8 8 28 17 43 20 33 9 82
65 83 97 4 73 18 157 34 197 10 25 18 58 18 73 0 14 10 41 23 59 13 19 24 39
25 46 1 6 15 28 30 48 22 29 33 36 53 32 41 -8 118 41 91 58 -24 15 -50 86
-50 136 l0 51 33 -7 c17 -3 53 -9 78 -12 l46 -5 17 54 c10 29 31 90 48 135 41
112 35 124 -49 98 -19 -6 -23 -4 -23 16 0 13 11 38 24 54 22 28 29 30 88 30
34 0 68 3 73 7 28 17 105 12 133 -10 21 -16 22 -21 11 -45 -6 -14 -15 -24 -20
-22 -12 8 -39 -6 -39 -21 0 -8 -7 -14 -15 -14 -19 0 -49 -49 -65 -106 -7 -24
-16 -41 -21 -38 -5 3 -9 -5 -9 -17 0 -18 3 -19 15 -9 8 6 17 20 20 31 8 23 50
35 69 20 7 -6 16 -29 20 -50 3 -22 13 -46 21 -55 30 -29 18 -44 -34 -44 -44 0
-133 -24 -154 -42 -4 -4 -9 -18 -11 -31 -1 -13 -7 -33 -13 -44 -6 -11 -14 -42
-17 -70 -7 -51 -29 -95 -47 -95 -6 0 -8 -4 -4 -9 3 -6 -9 -5 -30 0 -63 18
-121 -18 -131 -82 -5 -29 -13 -42 -33 -52 -19 -9 -26 -20 -26 -40 1 -15 -4
-27 -10 -27 -5 0 -20 -33 -33 -72 -24 -79 -19 -94 28 -82 14 4 68 6 120 5 52
0 115 4 138 11 26 7 47 7 50 2 4 -5 31 -20 61 -34 97 -45 195 -157 150 -172
-6 -2 -12 -24 -13 -48 -3 -64 -75 -180 -113 -180 -7 0 -13 -7 -13 -15 0 -8 -4
-15 -10 -15 -5 0 -12 -10 -15 -23 -4 -13 -20 -31 -36 -41 -16 -10 -47 -35 -68
-55 -29 -29 -43 -36 -55 -29 -10 6 -16 5 -16 -2 0 -5 -7 -10 -16 -10 -8 0 -20
-13 -25 -30 -6 -16 -15 -27 -20 -24 -5 3 -9 -4 -9 -16 0 -13 -4 -19 -11 -14
-7 4 -9 0 -5 -13 7 -23 -18 -79 -39 -87 -8 -3 -12 -12 -9 -21 4 -10 0 -15 -11
-15 -9 0 -14 -4 -10 -9 3 -5 -4 -12 -15 -16 -11 -3 -20 -15 -20 -26 0 -10 -7
-19 -15 -19 -8 0 -15 -7 -15 -17 0 -9 -3 -13 -6 -10 -7 7 -64 -67 -64 -83 0
-5 -9 -14 -20 -20 -11 -6 -18 -15 -16 -19 3 -4 -15 -29 -40 -55 -24 -26 -42
-51 -39 -56 3 -4 2 -10 -2 -12 -12 -5 -53 -66 -53 -78 0 -5 -4 -10 -8 -10 -5
0 -16 -16 -25 -35 -9 -19 -21 -35 -26 -35 -5 0 -16 -16 -25 -35 -9 -19 -23
-35 -30 -35 -8 0 -16 -6 -19 -13 -2 -7 -18 -14 -33 -15 -16 -1 -30 -7 -32 -12
-2 -6 -10 -10 -18 -10 -8 0 -14 -4 -14 -10 0 -5 -5 -10 -11 -10 -20 0 -104
-103 -122 -149 -9 -25 -29 -77 -44 -116 -15 -38 -33 -78 -41 -87 -8 -10 -12
-18 -9 -18 7 0 -67 -144 -86 -167 -5 -7 -7 -13 -4 -13 4 0 -5 -17 -19 -37 -13
-20 -27 -48 -31 -62 -3 -14 -9 -28 -13 -31 -4 -3 -30 -52 -57 -110 -49 -103
-108 -223 -128 -261 -5 -11 -13 -19 -17 -19 -5 0 -8 -6 -8 -13 0 -7 -16 -31
-35 -53 -19 -21 -35 -45 -35 -51 0 -7 -4 -13 -9 -13 -5 0 -12 -8 -15 -18 -15
-45 -94 -110 -186 -153 -14 -6 -32 -15 -40 -20 -17 -10 -62 -31 -105 -49 -83
-35 -147 -17 -231 64 -98 95 -109 101 -134 71 -7 -8 -16 -13 -20 -10 -4 3 -13
-1 -19 -9 -7 -8 -21 -12 -33 -8 -13 3 -19 1 -15 -5 4 -6 -7 -9 -28 -7 -79 6
-118 21 -213 85 -24 16 -47 29 -52 29 -5 0 -13 7 -18 15 -9 16 -12 14 -87 -52
-15 -14 -37 -18 -95 -18 -69 0 -79 3 -125 34 -49 34 -74 54 -122 99 -13 12
-28 22 -33 22 -6 0 -10 7 -10 15 0 8 -6 15 -14 15 -8 0 -17 8 -20 18 -3 9 -18
31 -32 47 -14 17 -33 41 -41 55 -10 18 -29 29 -60 36 -83 20 -128 -9 -323
-198 -15 -16 -31 -28 -34 -28 -4 0 -18 -10 -31 -22 -57 -54 -186 -160 -227
-186 -16 -9 -28 -22 -28 -27 0 -10 -59 -50 -70 -48 -3 0 -21 -13 -41 -31 -20
-17 -56 -44 -80 -61 l-44 -30 2224 -3 c1223 -1 2227 0 2230 4 6 6 -129 133
-142 134 -4 0 -20 11 -35 25 -15 14 -35 28 -44 31 -20 6 -228 208 -228 221 0
5 -12 20 -28 33 -15 14 -49 58 -76 98 -27 39 -57 80 -66 90 -9 9 -23 32 -30
49 -8 18 -18 33 -22 33 -5 0 -8 8 -8 18 0 9 -9 28 -20 42 -11 14 -20 31 -20
39 0 7 -11 34 -24 60 -40 79 -56 121 -56 146 0 14 -5 25 -10 25 -6 0 -10 6 -9
13 2 13 -7 41 -23 71 -6 11 -13 47 -16 81 -5 68 10 109 72 189 49 64 52 68
161 182 145 152 156 166 150 181 -2 8 -1 11 5 8 5 -3 25 19 44 50 20 30 42 55
50 55 8 0 16 6 19 14 4 9 14 12 26 9 15 -4 21 -1 21 11 0 10 6 13 15 10 17 -7
21 11 5 21 -15 9 -12 25 4 25 7 0 16 10 19 21 4 14 11 20 21 16 8 -3 17 1 20
9 4 11 17 15 39 13 18 -2 38 1 46 5 8 5 16 3 21 -5 7 -10 12 -10 23 0 8 6 17
8 19 4 3 -4 3 -2 1 5 -2 8 6 16 16 19 21 5 35 29 25 44 -3 6 0 16 6 24 6 8 9
19 6 24 -4 6 3 15 14 21 20 11 20 18 20 649 l0 638 -26 48 c-27 52 -26 75 6
75 19 0 20 6 20 138 0 137 -1 140 -45 278 -54 167 -60 180 -102 221 -18 18
-33 37 -33 41 0 22 38 50 70 52 59 3 68 1 73 -22 4 -13 13 -32 21 -43 14 -18
15 23 16 396 0 408 0 417 -20 422 -11 3 -20 1 -20 -4 0 -5 -6 -9 -13 -9 -8 0
-27 -11 -43 -25 -26 -22 -38 -27 -60 -24 -4 0 -11 -5 -15 -13 -7 -10 -9 -10
-9 0 0 7 -8 12 -17 10 -19 -3 -20 9 -11 77 4 36 47 105 82 132 14 11 48 23 76
27 l50 7 0 119 0 120 -44 0 c-48 0 -58 11 -61 65 -2 41 19 70 66 89 l39 16 0
293 0 294 -27 1 c-44 1 -61 7 -83 27 -11 10 -20 14 -20 10 0 -4 -10 0 -22 11
-12 10 -18 13 -14 6 4 -7 1 -15 -9 -18 -9 -4 -14 -12 -11 -20 8 -21 -60 -54
-115 -56 -28 -1 -53 -6 -55 -10 -3 -4 -13 -8 -22 -8 -9 -1 -30 -8 -47 -16 -16
-8 -22 -12 -12 -9 9 2 17 1 17 -4 0 -5 -9 -11 -20 -14 -14 -4 -18 -10 -14 -22
5 -11 2 -15 -8 -13 -8 2 -32 -6 -54 -16 -21 -10 -46 -22 -53 -26 -8 -3 -24
-19 -35 -34 -24 -32 -16 -41 46 -51 42 -7 88 16 88 45 0 10 14 28 31 40 34 25
82 23 135 -5 43 -22 51 -19 72 28 23 51 37 64 79 70 17 3 37 8 42 12 6 3 11 1
11 -4 0 -6 3 -10 8 -10 23 4 52 -2 48 -10 -3 -5 1 -12 9 -15 10 -4 15 -17 13
-38 -2 -36 -22 -63 -38 -53 -19 12 -43 -24 -37 -55 5 -23 1 -33 -20 -50 -14
-11 -39 -20 -54 -20 -27 0 -28 -2 -17 -22 7 -12 21 -30 31 -40 21 -23 23 -76
1 -85 -8 -3 -13 -12 -10 -19 5 -13 -6 -18 -26 -15 -5 0 -8 -3 -8 -9 0 -5 -7
-7 -15 -4 -8 4 -15 1 -15 -5 0 -6 -6 -11 -13 -11 -17 0 -38 -36 -31 -54 3 -8
22 -17 42 -21 77 -14 91 -56 36 -104 -19 -17 -39 -31 -45 -31 -6 0 -8 -4 -5
-9 4 -5 -4 -7 -16 -3 -16 4 -20 2 -16 -9 4 -11 -2 -16 -21 -17 -36 -3 -95 59
-86 88 4 14 1 22 -12 27 -35 13 -42 29 -38 87 3 43 0 56 -11 56 -27 0 -46 46
-42 105 2 37 -1 55 -9 55 -6 0 -14 6 -16 13 -4 10 -6 10 -6 0 -1 -7 -10 -13
-21 -13 -11 0 -24 -8 -27 -17 -4 -10 -11 -21 -16 -24 -4 -3 9 -21 31 -40 47
-40 59 -84 43 -146 -11 -41 -31 -58 -63 -54 -23 3 -23 -14 1 -31 10 -7 21 -23
25 -35 5 -16 18 -24 43 -29 32 -6 103 -61 103 -80 0 -18 -47 -59 -64 -56 -11
3 -16 0 -12 -7 5 -7 -11 -11 -48 -11 -47 0 -56 -3 -56 -18 0 -10 -5 -23 -12
-30 -9 -9 -7 -13 8 -18 10 -3 30 -10 44 -15 14 -5 40 -8 58 -7 29 1 37 8 33
30 -3 23 118 52 145 35 14 -8 70 7 66 18 -2 4 2 12 10 16 10 7 8 9 -7 9 -36 0
6 27 66 42 81 20 126 13 145 -23 8 -16 12 -39 9 -52 -6 -23 -45 -59 -68 -63
-7 -1 -24 -5 -38 -9 -16 -4 -30 -2 -33 4 -4 6 -13 11 -21 11 -10 0 -13 -10
-11 -37 3 -31 -1 -42 -23 -60 -14 -13 -34 -23 -44 -23 -10 0 -16 -4 -13 -8 3
-5 -8 -9 -24 -9 -16 0 -27 4 -24 9 3 4 -7 3 -21 -2 -37 -14 -37 -14 -73 22
l-33 31 11 -27 c14 -38 12 -44 -6 -21 -16 19 -16 19 -12 -8 4 -22 1 -28 -18
-33 -13 -3 -24 -10 -24 -15 0 -5 -7 -9 -15 -9 -8 0 -15 -4 -15 -10 0 -17 -77
-49 -89 -37 -8 8 -11 7 -11 -2 0 -8 -6 -11 -15 -7 -8 3 -15 1 -15 -4 0 -15
-47 -12 -53 3 -4 10 -6 10 -6 0 -1 -15 -31 -18 -31 -3 0 18 -38 10 -43 -9 -2
-11 -28 -34 -56 -53 -28 -18 -51 -38 -51 -45 0 -7 -7 -10 -15 -7 -8 4 -15 1
-15 -5 0 -6 -9 -11 -21 -11 -13 0 -18 -4 -14 -12 4 -7 0 -5 -8 5 -16 19 -37
23 -37 7 0 -5 -5 -10 -10 -10 -6 0 -9 3 -9 8 4 22 -2 42 -12 42 -19 0 -60 51
-64 79 -1 14 8 44 20 66 32 56 39 94 22 114 -19 22 -36 94 -39 161 -3 45 -6
54 -20 52 -20 -3 -64 65 -59 93 10 62 93 162 142 172 30 6 35 12 20 29 -4 5
-13 30 -20 56 -11 48 -9 80 9 148 6 19 10 50 10 68 0 18 9 49 19 70 10 20 20
42 21 47 1 6 8 17 15 25 37 41 -22 82 -76 54 -58 -30 -123 -134 -124 -199 0
-33 -3 -40 -20 -40 -11 0 -30 -10 -42 -22 -13 -13 -28 -23 -34 -23 -13 0 -59
-46 -59 -59 0 -18 -26 -31 -38 -19 -7 7 -12 8 -12 3 0 -8 -24 17 -64 67 -30
39 -48 23 -50 -43 -1 -30 -6 -71 -10 -92 -5 -23 -4 -55 4 -85 6 -26 16 -83 20
-127 5 -44 12 -105 16 -136 6 -55 6 -57 -21 -70 -16 -8 -37 -26 -48 -41 -18
-24 -19 -34 -11 -85 8 -50 7 -60 -8 -75 -10 -10 -25 -18 -34 -18 -12 0 -15 -8
-11 -34 2 -19 7 -38 10 -43 4 -5 9 -25 12 -44 3 -19 10 -38 16 -43 15 -16 10
-46 -7 -46 -8 0 -13 -4 -10 -9 3 -5 -6 -11 -20 -14 l-26 -5 27 24 c16 13 25
27 22 31 -4 3 -8 4 -9 2 -2 -2 -14 -16 -27 -32 l-25 -27 32 -28 c18 -16 32
-37 32 -48 0 -11 11 -40 24 -65 l25 -46 -40 -22 c-21 -12 -43 -19 -49 -16 -6
4 -7 -1 -3 -11 4 -11 2 -15 -4 -11 -6 4 -14 0 -17 -9 -3 -8 -11 -12 -16 -9
-11 7 -49 -33 -50 -52 0 -28 -19 -20 -35 14 -21 44 -41 66 -53 59 -5 -3 -16 4
-25 15 -26 29 -22 102 7 145 20 30 23 45 21 103 -2 38 -8 78 -14 89 -6 11 -11
31 -11 44 0 28 44 125 69 153 14 15 20 42 24 107 4 74 9 92 33 125 15 21 34
43 42 50 11 9 12 19 4 45 -6 18 -13 60 -15 93 -2 33 -9 74 -16 90 -7 17 -15
56 -18 88 -5 50 -8 57 -27 57 -14 0 -25 -10 -34 -32 -8 -18 -22 -49 -33 -69
-20 -39 -25 -84 -10 -93 9 -6 6 -143 -3 -175 -3 -9 -8 -49 -11 -90 -3 -40 -8
-77 -11 -82 -6 -11 -65 -12 -80 -1 -17 11 -24 53 -12 75 7 14 7 18 -2 12 -8
-5 -9 3 -5 27 4 20 0 60 -10 96 -19 77 -10 120 38 175 40 47 44 79 19 167 -11
36 -17 72 -14 80 11 39 97 90 150 90 28 0 40 27 41 93 0 36 -4 69 -9 72 -6 3
-19 26 -30 51 -19 41 -27 71 -50 184 -10 49 -29 103 -48 137 -7 12 -12 34 -12
50 0 73 -69 163 -159 206 -44 22 -46 22 -69 -10z m860 -980 c36 -33 21 -124
-36 -207 -32 -48 -33 -69 -2 -109 38 -49 58 -122 58 -205 1 -67 -92 -80 -144
-20 -16 17 -28 33 -29 37 -9 71 -8 101 6 147 16 54 15 57 -6 101 -20 42 -21
52 -11 115 12 78 26 99 92 134 55 28 50 28 72 7z m-1196 -493 c18 -7 30 -7 39
0 8 7 18 5 31 -5 10 -8 15 -15 9 -15 -5 0 -3 -5 5 -10 12 -8 9 -10 -13 -10
-19 0 -26 4 -21 12 4 6 3 8 -4 5 -5 -4 -8 -16 -5 -26 3 -13 -4 -24 -26 -37
-16 -10 -28 -21 -25 -25 2 -4 -12 -2 -31 4 -25 7 -42 7 -59 -1 -20 -9 -27 -7
-45 14 -25 29 -27 47 -5 65 42 35 103 47 150 29z m990 -66 c64 -22 76 -33 112
-107 42 -85 35 -115 -28 -118 -21 -1 -22 -2 -5 -6 11 -3 32 -14 48 -25 31 -22
109 -132 100 -142 -3 -3 0 -12 7 -21 11 -13 10 -14 -5 -9 -14 6 -16 4 -10 -6
6 -10 4 -12 -8 -7 -11 4 -17 1 -17 -8 0 -10 9 -14 28 -13 66 4 77 -1 108 -49
16 -26 44 -64 62 -85 37 -42 34 -63 -8 -54 -15 3 -30 2 -34 -1 -3 -4 -18 -8
-33 -9 -14 -2 -29 -8 -33 -14 -4 -7 -11 -12 -16 -11 -23 1 -54 -12 -54 -23 0
-7 13 -25 29 -40 29 -28 36 -70 14 -85 -5 -3 -22 -23 -37 -43 -33 -44 -73 -51
-94 -18 -7 11 -19 20 -27 20 -17 0 -35 30 -35 60 0 12 21 41 51 69 40 39 47
50 34 55 -9 3 -13 10 -10 16 6 9 -8 15 -29 11 -5 -1 -6 5 -3 14 6 13 -4 20
-25 16 -5 0 -8 9 -7 21 0 16 2 18 6 8 4 -8 12 12 19 45 7 33 15 67 18 75 7 18
-29 37 -58 32 -15 -3 -16 -6 -5 -14 10 -7 8 -8 -8 -5 -24 5 -32 -8 -10 -16 8
-4 6 -6 -4 -6 -18 -1 -64 85 -74 141 -9 48 9 102 43 128 25 19 25 20 3 9 -21
-10 -27 -8 -43 12 -48 60 -61 135 -33 189 9 17 17 30 18 30 2 0 26 -7 53 -16z
m1054 -254 c8 -5 11 -10 6 -10 -5 0 5 -13 22 -28 17 -16 28 -33 24 -38 -5 -5
-5 -25 -1 -44 4 -22 7 -27 8 -12 1 18 7 22 35 22 18 0 50 7 70 15 32 14 36 14
36 0 0 -8 4 -15 9 -15 5 0 17 -3 26 -7 14 -5 16 -2 10 18 -7 21 -6 22 9 10 9
-8 14 -16 12 -18 -2 -3 4 -13 15 -24 10 -10 19 -28 19 -39 0 -11 5 -20 11 -20
7 0 -3 -14 -20 -31 -18 -17 -39 -28 -46 -25 -8 3 -17 1 -21 -5 -3 -5 -14 -7
-25 -4 -10 4 -19 2 -19 -2 0 -5 -18 -8 -40 -7 -22 1 -40 -1 -40 -5 0 -10 -47
-31 -69 -31 -24 0 -50 39 -53 79 -2 31 27 75 43 65 5 -3 6 1 3 9 -3 9 -17 12
-47 9 -23 -2 -77 -6 -119 -9 -54 -3 -81 -9 -90 -21 -10 -12 -10 -14 0 -8 6 4
12 3 12 -3 0 -5 -6 -12 -12 -14 -13 -6 16 -11 40 -8 20 3 82 -19 82 -29 0 -5
9 -12 20 -15 11 -3 20 -15 20 -26 0 -10 5 -19 10 -19 6 0 10 -4 10 -10 0 -5
-7 -10 -15 -10 -8 0 -15 -4 -15 -9 0 -12 -86 -52 -127 -58 -19 -3 -33 -12 -33
-19 0 -8 -4 -14 -10 -14 -19 0 -10 -27 14 -39 24 -13 39 -37 51 -77 4 -16 -5
-31 -37 -63 -24 -22 -50 -41 -58 -41 -19 1 -64 40 -74 65 -13 30 -6 98 10 116
14 15 11 19 -19 38 -41 25 -52 48 -35 69 11 13 11 14 -1 7 -11 -6 -13 -4 -8 8
3 9 0 18 -9 21 -8 3 -14 1 -14 -5 0 -6 -3 -8 -7 -6 -5 3 -17 -7 -27 -21 -11
-14 -14 -22 -8 -18 8 5 10 2 6 -8 -3 -9 -10 -16 -14 -16 -11 0 -31 26 -25 32
3 3 -1 11 -10 18 -8 7 -15 20 -15 30 0 24 -18 37 -64 46 -32 6 -37 9 -24 18 8
6 18 21 22 33 4 12 16 25 26 28 11 4 23 17 26 30 9 37 98 105 108 82 5 -9 7
-9 12 0 6 13 72 7 89 -8 17 -16 62 -9 81 12 10 12 32 30 48 41 23 17 30 18 37
7 6 -10 11 -11 17 -3 4 6 14 13 22 16 26 9 115 8 130 -2z m-1150 -155 c-1 -5
-9 -13 -20 -17 -13 -5 -19 -1 -23 13 -5 17 -1 20 19 17 14 -2 24 -7 24 -13z
m1474 0 c-4 -8 -8 -15 -10 -15 -2 0 -4 7 -4 15 0 8 4 15 10 15 5 0 7 -7 4 -15z
m-1289 -125 c3 -5 1 -10 -4 -10 -6 0 -11 5 -11 10 0 6 2 10 4 10 3 0 8 -4 11
-10z m420 0 c3 -5 2 -10 -4 -10 -5 0 -13 5 -16 10 -3 6 -2 10 4 10 5 0 13 -4
16 -10z m-975 -146 c0 -8 -4 -12 -10 -9 -5 3 -10 10 -10 16 0 5 5 9 10 9 6 0
10 -7 10 -16z m265 -4 c3 -5 1 -10 -4 -10 -6 0 -11 5 -11 10 0 6 2 10 4 10 3
0 8 -4 11 -10z m153 -66 c23 -24 42 -52 42 -63 0 -11 8 -25 18 -30 15 -9 14
-11 -8 -11 -14 -1 -19 -4 -11 -7 11 -4 11 -7 0 -13 -10 -7 -10 -11 1 -25 7 -9
19 -14 27 -11 7 3 13 2 14 -2 0 -4 2 -18 4 -32 12 -103 13 -214 3 -234 -7 -11
-11 -29 -9 -39 2 -16 -3 -18 -41 -12 -48 6 -59 1 -78 -35 -12 -22 -21 -75 -12
-65 2 2 12 -4 22 -12 14 -13 16 -21 8 -38 -12 -28 -35 -27 -68 3 -14 12 -38
22 -55 22 -28 0 -34 -6 -59 -60 -30 -64 -46 -82 -46 -55 0 9 -4 14 -9 11 -10
-6 -21 26 -21 61 0 12 -7 29 -16 38 -15 15 -18 14 -31 -5 -18 -26 -39 -26 -46
0 -5 21 35 105 45 95 3 -3 13 6 22 20 16 24 56 35 56 15 0 -5 5 -10 10 -10 6
0 10 13 10 28 0 20 12 39 40 66 22 21 41 42 41 47 1 5 2 15 3 22 1 6 8 11 14
9 7 -1 20 11 30 28 9 16 20 30 24 30 4 0 27 18 52 41 46 42 52 72 13 63 -88
-20 -143 13 -155 91 -9 56 -5 88 9 80 5 -4 9 -1 9 4 0 6 6 11 14 11 8 0 18 5
22 12 4 6 3 8 -4 4 -6 -3 -14 -1 -17 5 -5 7 7 8 41 3 40 -6 57 -15 92 -50z
m1257 16 c29 0 48 -39 30 -63 -7 -9 -20 -17 -29 -17 -9 0 -19 -6 -22 -14 -6
-15 -37 -26 -94 -33 -19 -2 -42 -11 -51 -19 -16 -14 -18 -14 -27 3 -6 10 -14
15 -17 11 -14 -14 -39 25 -38 59 1 39 30 67 73 70 14 1 50 6 80 11 30 4 59 5
65 0 5 -4 19 -8 30 -8z m-644 -49 c32 -12 79 -54 79 -70 0 -40 -51 -87 -102
-95 -19 -3 -17 -16 6 -31 29 -19 34 -35 11 -35 -16 0 -37 -39 -41 -75 -1 -11
-4 -51 -7 -90 -3 -38 -13 -85 -22 -103 -13 -25 -14 -37 -6 -45 6 -6 11 -23 11
-38 0 -15 5 -31 11 -34 6 -4 8 -22 4 -45 -10 -57 9 -56 46 3 53 85 67 97 114
97 l41 0 27 -77 c32 -95 32 -96 -95 -112 -51 -7 -107 -16 -125 -20 -36 -10
-47 4 -38 47 3 17 -2 25 -18 32 -12 5 -17 9 -12 9 6 1 11 10 11 21 0 11 -5 19
-11 16 -7 -2 -10 7 -7 28 3 17 7 25 9 19 8 -23 20 -13 15 12 -3 16 -10 24 -20
23 -9 -2 -17 3 -18 10 -3 25 -4 27 -12 16 -4 -6 -23 -14 -42 -18 -54 -10 -73
9 -77 79 -4 71 6 85 63 85 l44 0 0 54 c0 30 -4 57 -9 60 -10 7 -8 58 4 95 4
14 2 33 -6 48 -11 21 -11 29 3 53 15 27 15 28 0 24 -15 -5 -15 -4 1 9 10 8 17
19 16 23 -6 37 1 42 64 38 34 -1 74 -7 88 -13z m-908 -55 c9 -7 17 -21 17 -30
0 -9 5 -16 10 -16 6 0 10 -5 10 -11 0 -5 -4 -7 -10 -4 -5 3 -10 1 -10 -4 0 -6
-7 -11 -15 -11 -17 0 -21 -36 -4 -42 6 -2 8 -14 3 -32 l-7 -28 -25 27 c-21 23
-26 39 -28 89 -1 33 0 64 3 69 7 11 36 8 56 -7z m55 -248 c20 -20 14 -36 -33
-85 -25 -25 -45 -52 -45 -59 0 -6 -7 -14 -15 -18 -9 -3 -15 0 -15 10 0 8 -5
12 -10 9 -6 -4 -13 7 -16 24 -4 16 -13 32 -21 36 -24 8 11 42 72 71 58 27 67
28 83 12z m991 -69 c14 -39 14 -126 2 -134 -14 -8 -27 20 -41 89 -10 48 -10
60 2 67 21 14 25 11 37 -22z m39 -465 c6 -7 12 -21 12 -31 0 -20 -49 -77 -87
-102 -12 -8 -24 -25 -28 -38 -3 -13 -10 -21 -14 -18 -10 6 9 75 33 120 9 17
16 39 16 51 0 41 35 50 68 18z m-1102 -70 c31 5 45 -19 38 -63 -7 -45 -18 -51
-33 -22 -9 17 -16 18 -50 9 -29 -7 -41 -16 -43 -32 -4 -25 -41 -29 -46 -5 -2
9 14 42 35 72 32 47 40 54 59 47 12 -5 30 -7 40 -6z m389 -4 c3 -5 1 -10 -4
-10 -6 0 -11 5 -11 10 0 6 2 10 4 10 3 0 8 -4 11 -10z m83 -32 c-6 -16 -48
-23 -48 -8 0 6 5 8 10 5 6 -3 10 -1 10 4 0 6 7 11 16 11 9 0 14 -6 12 -12z
m1172 -137 c-1 -21 -36 -46 -77 -55 -18 -4 -41 -19 -51 -32 -18 -25 -18 -25
-19 -3 -3 34 13 56 69 94 53 35 78 34 78 -4z m93 -10 c6 -26 -18 -35 -35 -13
-9 11 -10 14 0 8 7 -4 12 -1 12 8 0 23 17 20 23 -3z m-1623 -30 c0 -5 -7 -12
-16 -15 -22 -9 -24 -8 -24 9 0 8 9 15 20 15 11 0 20 -4 20 -9z m246 -8 c14 -9
38 -17 53 -18 16 -1 36 -7 45 -12 15 -8 9 -18 -48 -68 -50 -45 -67 -67 -72
-94 -8 -40 -23 -60 -42 -53 -9 3 -12 -5 -10 -24 4 -36 -30 -48 -39 -14 -3 12
-9 17 -12 12 -9 -15 -126 124 -126 150 0 18 7 24 35 29 19 4 51 13 70 19 19 7
41 14 48 16 7 2 15 12 19 21 8 23 34 53 45 53 5 0 20 -7 34 -17z m984 -95 c8
1 30 4 48 8 22 4 40 1 58 -11 l27 -17 -31 -15 c-17 -8 -36 -27 -42 -43 -20
-48 -42 -62 -73 -47 -15 6 -27 15 -27 20 0 4 -6 7 -14 7 -26 0 -53 46 -48 80
5 32 5 32 46 25 22 -4 48 -7 56 -7z m-177 -50 c14 -22 1 -54 -17 -39 -7 6 -16
8 -20 4 -4 -4 -4 0 0 10 4 10 1 17 -6 17 -10 0 -10 3 0 15 15 18 29 16 43 -7z
m-1076 -159 c7 -6 13 -18 13 -25 0 -17 17 -18 23 -1 4 9 6 9 6 -1 1 -20 -30
-27 -41 -9 -4 9 -14 14 -22 11 -7 -3 -19 2 -26 11 -7 8 -9 15 -4 16 5 0 0 5
-11 10 -15 7 -12 8 14 4 19 -3 40 -10 48 -16z m1485 -581 c-7 -7 -12 -8 -12
-2 0 14 12 26 19 19 2 -3 -1 -11 -7 -17z"/>
<path d="M17746 4133 c-20 -21 -36 -40 -36 -43 0 -3 16 -15 35 -28 l35 -22 11
27 c6 16 16 40 23 55 10 19 11 29 3 37 -18 18 -33 13 -71 -26z"/>
<path d="M17715 3050 c-3 -5 -1 -10 4 -10 6 0 11 5 11 10 0 6 -2 10 -4 10 -3
0 -8 -4 -11 -10z"/>
<path d="M16600 6422 c-19 -19 -34 -38 -32 -41 1 -3 -2 -27 -9 -54 -15 -66 -5
-112 43 -180 22 -32 45 -75 50 -95 5 -21 10 -41 12 -47 3 -10 18 -98 21 -125
13 -103 101 -200 182 -200 17 0 49 -13 74 -30 49 -33 103 -40 113 -14 10 26
-11 51 -49 58 -19 4 -39 15 -45 26 -9 17 -5 25 20 50 16 16 30 36 30 45 0 8 5
15 11 15 6 0 3 7 -5 16 -31 30 -64 100 -90 189 -15 50 -32 101 -37 115 -5 14
-16 56 -23 93 -17 82 -33 108 -89 147 -23 16 -47 34 -53 39 -10 8 -40 19 -74
26 -8 1 -31 -13 -50 -33z"/>
<path d="M18673 6260 c-24 -10 -43 -15 -43 -11 0 14 -50 19 -89 9 -20 -5 -44
-19 -53 -30 -10 -11 -18 -17 -18 -12 0 4 -11 -3 -25 -16 -37 -35 -32 -113 8
-126 24 -8 57 26 57 58 0 33 57 75 93 69 4 0 7 3 7 8 0 9 68 6 96 -4 19 -6 35
40 21 59 -11 14 -16 14 -54 -4z"/>
<path d="M16160 6204 c0 -53 73 -86 77 -34 2 32 -23 60 -54 60 -18 0 -23 -5
-23 -26z"/>
<path d="M15773 6118 c1 -7 -4 -12 -12 -13 -15 0 -29 -25 -14 -25 4 0 9 -16
10 -36 1 -21 13 -50 28 -70 14 -19 23 -39 20 -44 -3 -6 -3 -10 2 -10 12 0 44
-60 37 -71 -3 -5 0 -9 6 -9 6 0 9 -4 6 -9 -3 -5 5 -24 17 -42 13 -19 29 -60
36 -91 8 -32 17 -55 21 -53 4 3 10 -5 13 -16 5 -19 11 -21 44 -15 21 4 50 16
65 27 15 10 30 19 33 19 21 0 98 91 107 127 10 38 -71 103 -109 89 -8 -3 -11
-1 -8 4 6 10 -17 40 -30 40 -11 0 -35 28 -35 40 0 6 -4 8 -10 5 -5 -3 -10 1
-10 9 0 9 -4 16 -10 16 -10 0 -45 27 -88 68 -13 12 -28 19 -34 16 -6 -4 -8 -2
-4 4 4 6 -8 16 -29 23 -19 7 -35 17 -35 21 0 4 -4 8 -10 8 -5 0 -9 -5 -7 -12z"/>
<path d="M17577 5969 c-29 -31 -36 -45 -31 -62 10 -33 20 -35 80 -19 l54 15
-3 46 c-4 75 -41 82 -100 20z"/>
<path d="M18863 5961 c-13 -11 -23 -25 -23 -31 0 -13 39 -49 53 -50 5 0 22 10
39 21 l29 21 -27 29 c-32 34 -41 35 -71 10z"/>
<path d="M18371 5947 c-6 -6 -11 -17 -11 -24 0 -7 -5 -13 -11 -13 -5 0 -7 -4
-4 -10 3 -5 -7 -40 -23 -77 -16 -37 -30 -72 -31 -78 -2 -5 -9 -25 -17 -44 -8
-18 -14 -37 -14 -42 0 -5 -5 -9 -11 -9 -5 0 -7 -4 -4 -10 3 -5 -3 -20 -14 -32
-16 -16 -21 -35 -21 -77 0 -55 1 -56 34 -67 l34 -10 7 75 c11 112 62 201 116
201 28 0 51 -85 43 -155 -8 -64 -1 -66 44 -13 14 16 34 28 48 28 25 0 32 14
13 26 -17 10 -41 75 -44 114 -1 19 -7 61 -14 93 -7 32 -10 65 -7 75 3 9 0 24
-7 33 -15 20 -91 31 -106 16z"/>
<path d="M12305 5920 c-3 -5 -1 -10 4 -10 6 0 11 5 11 10 0 6 -2 10 -4 10 -3
0 -8 -4 -11 -10z"/>
<path d="M14393 5663 c-24 -9 -13 -38 30 -75 23 -21 48 -38 55 -38 6 0 12 -4
12 -8 0 -16 37 -52 54 -52 9 0 16 -7 16 -15 0 -8 6 -15 13 -15 7 0 24 -11 39
-25 18 -16 28 -20 31 -12 4 7 6 6 6 -4 1 -9 13 -25 28 -35 15 -10 40 -31 56
-46 16 -16 32 -28 35 -28 4 -1 25 -19 47 -40 22 -22 48 -43 57 -46 10 -3 18
-10 18 -15 0 -5 4 -9 9 -9 6 0 54 -43 107 -95 54 -52 101 -95 106 -95 4 0 8
-7 8 -15 0 -8 5 -15 12 -15 19 0 279 -273 294 -310 19 -44 52 -80 75 -80 10 0
21 -9 24 -20 3 -11 11 -20 16 -20 5 0 9 -7 9 -15 0 -9 6 -26 14 -38 8 -12 17
-33 20 -47 7 -24 7 -24 -9 -5 -15 20 -16 19 -21 -3 -7 -23 -19 -29 -29 -12 -3
6 -18 10 -33 11 -15 0 -21 3 -14 6 14 6 16 23 2 23 -16 0 -47 35 -42 48 2 7
-2 12 -8 12 -7 0 -10 7 -6 15 3 10 -1 18 -11 22 -10 4 -33 22 -52 41 -29 30
-39 33 -69 28 -19 -3 -43 -1 -52 4 -16 9 -32 46 -27 61 4 11 -25 39 -40 39 -8
0 -21 7 -30 15 -8 8 -19 13 -24 10 -5 -4 -6 1 -3 9 4 11 0 16 -14 16 -12 0
-23 9 -27 20 -3 11 -14 20 -24 20 -10 0 -26 9 -37 21 -10 12 -31 27 -45 35
-14 7 -46 32 -70 56 -43 42 -68 61 -99 75 -8 4 -17 9 -20 12 -11 13 -89 51
-104 51 -21 0 -20 -18 4 -58 12 -19 27 -32 37 -30 9 2 18 -3 21 -11 3 -8 0
-11 -7 -7 -17 11 -2 -52 26 -105 14 -28 33 -49 46 -53 18 -5 19 -8 7 -15 -12
-8 -10 -14 10 -34 48 -46 80 -85 80 -96 0 -6 9 -11 20 -11 11 0 20 -7 20 -15
0 -8 5 -15 10 -15 6 0 10 -6 10 -14 0 -7 9 -16 20 -19 12 -3 20 -14 20 -26 0
-13 15 -30 41 -47 33 -20 39 -28 28 -36 -11 -8 -11 -9 3 -5 22 8 42 -15 26
-31 -9 -9 -8 -12 6 -12 13 0 16 -5 11 -20 -4 -14 -2 -20 7 -18 7 2 12 -2 11
-9 -2 -7 4 -10 12 -7 9 4 15 0 15 -10 0 -9 7 -16 16 -16 9 0 14 -6 11 -12 -4
-13 53 -58 72 -58 6 0 11 -4 11 -9 0 -5 8 -12 18 -16 9 -3 46 -32 82 -65 36
-33 69 -60 73 -60 5 0 6 -4 3 -9 -3 -5 4 -12 17 -15 12 -3 44 -27 72 -51 46
-42 89 -64 101 -53 2 3 15 48 28 101 26 105 39 127 100 173 106 79 226 120
304 104 38 -9 55 -8 84 4 56 24 58 45 9 98 -14 16 -25 39 -25 55 0 25 3 28 27
25 30 -4 35 9 12 28 -21 18 -58 0 -81 -39 -17 -28 -23 -31 -71 -31 -28 0 -54
-4 -58 -9 -6 -11 -65 -11 -65 -1 0 11 -51 28 -87 29 -58 2 -66 4 -71 23 -3 14
-10 16 -31 11 -14 -3 -30 -11 -34 -17 -5 -7 -7 -5 -5 5 2 9 -12 35 -30 58 -25
30 -40 41 -61 41 -19 0 -34 9 -47 26 -10 15 -27 34 -36 43 -10 8 -18 21 -18
27 0 6 -9 14 -20 17 -11 3 -19 9 -18 14 2 4 -15 25 -37 46 -108 104 -125 122
-125 132 0 7 -11 18 -25 25 -14 7 -25 17 -25 22 0 4 -5 8 -12 8 -6 0 -31 20
-55 45 -24 25 -43 40 -43 34 0 -7 -15 5 -34 25 -19 20 -43 36 -54 36 -11 0
-22 7 -26 15 -3 8 -17 20 -31 27 -14 6 -25 15 -25 21 0 11 -63 72 -72 69 -4
-1 -5 5 -2 13 4 9 0 15 -10 15 -8 0 -23 11 -32 25 -9 14 -20 23 -24 20 -4 -2
-18 4 -30 15 -21 18 -41 25 -64 21 -5 -1 -6 5 -3 14 4 9 1 15 -9 15 -8 0 -13
4 -9 9 7 12 -29 33 -40 23 -5 -4 -5 -1 -1 6 4 7 1 15 -7 18 -8 3 -23 21 -33
39 -14 27 -24 34 -40 31 -23 -4 -60 25 -47 37 3 4 -6 7 -21 7 -23 0 -27 4 -23
20 4 17 2 18 -15 9 -11 -6 -22 -8 -26 -5 -3 3 1 6 8 6 19 0 1 16 -25 23 -11 3
-26 3 -32 0z"/>
<path d="M16114 5552 c-33 -17 -43 -27 -67 -64 -23 -37 -14 -70 29 -103 l33
-25 18 26 c22 34 64 154 58 164 -10 16 -43 17 -71 2z"/>
<path d="M12790 5380 c0 -5 5 -10 10 -10 6 0 10 5 10 10 0 6 -4 10 -10 10 -5
0 -10 -4 -10 -10z"/>
<path d="M18355 5370 c-3 -6 -4 -29 0 -53 6 -45 -11 -76 -49 -90 -10 -4 -16
-11 -12 -14 4 -4 -7 -14 -25 -23 l-32 -17 35 -21 c20 -12 47 -22 60 -22 14 0
31 -7 38 -15 15 -18 44 -19 58 -2 6 6 17 32 26 57 14 42 14 46 -4 65 -11 12
-20 25 -20 30 0 5 -9 18 -20 30 -16 18 -26 42 -29 78 -1 10 -19 9 -26 -3z"/>
<path d="M12410 5175 c0 -3 10 -10 23 -15 17 -7 18 -9 4 -9 -15 -1 -16 -4 -5
-23 7 -13 19 -28 27 -34 9 -7 12 -18 7 -30 -5 -14 -9 -15 -15 -5 -7 10 -9 10
-14 -3 -3 -8 -1 -17 6 -20 7 -2 5 -5 -5 -5 -9 -1 -20 -11 -23 -22 -6 -17 -9
-19 -16 -8 -6 10 -9 8 -9 -8 0 -13 -4 -23 -10 -23 -5 0 -10 -9 -10 -20 0 -10
-6 -23 -14 -27 -20 -11 -24 -56 -6 -70 12 -10 9 -12 -20 -13 -32 -1 -33 -2
-17 -14 18 -14 18 -14 -2 -21 -19 -6 -39 -61 -33 -92 2 -6 -2 -14 -8 -18 -14
-9 -13 -45 3 -46 6 0 3 -4 -8 -8 -12 -5 -23 -4 -27 3 -8 11 -13 -29 -9 -71 1
-12 -3 -24 -9 -28 -5 -3 -10 -15 -10 -26 0 -10 -3 -18 -7 -18 -5 1 -12 1 -18
0 -14 -2 44 -31 64 -32 10 0 11 -2 4 -6 -7 -2 -13 -8 -13 -13 0 -5 6 -10 13
-13 6 -2 2 -2 -10 0 -13 2 -23 1 -23 -2 0 -12 45 -22 56 -14 7 6 26 11 43 12
17 1 31 7 31 12 0 6 5 3 10 -5 9 -13 10 -13 10 0 0 13 1 13 11 0 8 -11 12 -12
16 -2 2 6 9 12 14 12 6 0 7 -6 3 -12 -6 -10 -4 -10 8 0 8 7 22 10 31 6 8 -3
18 -1 21 5 5 7 15 7 31 -1 19 -9 31 -8 49 1 14 8 38 11 57 7 27 -5 30 -4 14 4
-15 8 -8 9 32 6 28 -3 68 0 89 6 28 7 39 7 42 -1 3 -9 7 -9 18 0 11 9 17 9 29
-1 8 -6 19 -9 25 -5 6 3 10 -4 11 -17 0 -22 1 -22 9 -3 5 11 9 15 9 9 1 -18
51 -14 51 3 0 13 3 13 15 3 8 -7 15 -9 15 -4 0 5 4 4 8 -3 9 -13 52 -6 52 9 0
5 8 4 19 -2 26 -14 74 -13 89 2 9 9 12 8 12 -8 0 -11 -6 -26 -12 -33 -11 -10
-8 -12 12 -9 16 2 24 -2 23 -9 -4 -20 32 -34 61 -23 18 7 26 6 26 -2 0 -7 15
-9 44 -6 24 3 51 1 60 -4 11 -6 22 -6 30 1 9 8 18 5 34 -10 12 -11 22 -15 22
-9 0 11 80 3 90 -9 6 -8 90 -6 110 2 26 10 50 4 51 -12 0 -11 2 -12 6 -3 4 10
8 10 19 1 11 -9 14 -9 14 1 0 9 4 9 13 2 17 -14 59 -18 76 -8 10 6 12 5 7 -2
-4 -7 -1 -12 9 -12 10 0 13 5 9 12 -5 8 -2 9 12 4 10 -5 27 -11 37 -13 9 -3
17 -9 17 -13 0 -5 15 -7 33 -6 17 2 40 -2 50 -8 13 -8 20 -8 26 3 6 9 11 10
15 2 5 -8 13 -8 27 -1 10 6 19 7 18 3 -3 -20 2 -24 17 -12 10 8 18 9 22 2 8
-12 42 -13 42 -1 0 4 9 3 20 -4 19 -12 28 -37 13 -39 -5 0 -102 -2 -218 -4
-232 -3 -375 -11 -479 -26 -38 -5 -71 -7 -73 -5 -3 2 -19 0 -36 -5 -18 -5 -88
-18 -157 -29 -312 -50 -346 -58 -540 -120 -47 -15 -128 -40 -180 -55 -230 -66
-501 -196 -736 -351 -44 -29 -128 -99 -187 -154 -103 -98 -210 -226 -201 -241
10 -16 62 4 114 44 56 43 136 97 144 97 2 0 37 19 78 43 40 24 91 51 113 61
22 11 87 41 144 68 133 63 187 85 286 115 96 29 289 71 354 77 25 2 46 5 46 6
0 1 64 3 142 3 77 1 139 -1 137 -4 -2 -4 3 -9 11 -13 8 -3 15 -1 15 4 0 15 61
8 67 -7 3 -7 12 -13 20 -13 8 0 11 -5 8 -10 -7 -11 48 -6 115 10 19 5 87 16
150 25 63 8 180 29 260 45 173 35 279 49 460 59 99 6 146 13 175 27 22 10 42
22 45 26 3 3 73 23 155 43 143 35 189 41 405 49 52 2 101 4 108 5 10 1 10 5 0
24 -7 12 -11 27 -10 34 2 7 -11 19 -28 28 -16 8 -30 13 -30 11 0 -3 -16 2 -35
10 -20 8 -41 12 -48 8 -7 -4 -9 -4 -5 1 4 4 -36 30 -88 56 -53 27 -104 57
-113 67 -9 10 -37 31 -63 47 -27 17 -48 33 -48 38 0 4 -6 7 -13 7 -7 0 -53 32
-102 71 -50 40 -115 88 -145 107 -30 19 -64 43 -75 53 -19 17 -214 117 -300
154 -88 38 -265 108 -340 136 -43 17 -93 36 -110 43 -36 16 -373 124 -500 160
-97 28 -458 116 -475 116 -5 0 -10 -2 -10 -5z"/>
<path d="M16929 5110 c-84 -14 -138 -55 -110 -83 14 -14 14 -47 0 -47 -5 0 -7
-4 -4 -10 3 -5 1 -10 -4 -10 -6 0 -11 -7 -11 -15 0 -8 5 -15 10 -15 6 0 10 -4
10 -10 0 -5 -9 -10 -20 -10 -11 0 -20 -4 -20 -10 0 -5 -21 -7 -50 -3 -54 6
-89 -12 -91 -46 0 -9 -16 -29 -36 -46 -34 -28 -36 -28 -49 -10 -8 10 -16 33
-20 51 -6 31 -7 32 -32 21 -45 -20 -55 -33 -40 -57 7 -11 16 -20 20 -20 4 0 7
-11 6 -25 -2 -19 -8 -25 -26 -25 -13 0 -32 -5 -42 -10 -16 -9 -18 -8 -13 6 5
13 2 15 -17 9 -15 -5 -20 -4 -16 4 4 6 3 11 -3 11 -5 0 -16 3 -25 6 -11 4 -16
1 -16 -10 0 -8 11 -18 24 -22 18 -4 27 -17 36 -52 7 -26 20 -60 27 -75 13 -26
19 -29 52 -25 56 5 77 -25 46 -66 -8 -11 -15 -28 -15 -39 0 -16 44 -103 60
-117 3 -3 5 -17 5 -31 1 -19 -4 -26 -15 -24 -8 2 -15 4 -15 5 0 1 -8 3 -18 5
-15 3 -16 1 -6 -11 9 -11 7 -14 -14 -14 -20 0 -26 -6 -29 -30 -3 -18 0 -34 7
-38 7 -4 18 -18 25 -31 14 -28 2 -41 -40 -41 -43 0 -104 -21 -118 -41 -7 -10
-19 -16 -26 -13 -8 3 -33 -8 -57 -24 -24 -16 -56 -37 -71 -46 -16 -9 -28 -23
-28 -31 0 -13 -38 -41 -45 -33 -11 11 -20 119 -13 153 8 38 45 87 80 106 20
11 48 2 48 -17 0 -9 6 -11 18 -7 22 8 32 23 32 49 0 33 26 50 54 35 18 -10 30
-10 59 3 50 20 50 53 -1 105 l-38 39 -22 -25 c-12 -14 -28 -23 -36 -20 -10 4
-15 -6 -19 -35 -3 -25 -15 -50 -29 -63 -26 -24 -50 -25 -163 -6 -112 20 -229
-22 -304 -106 -49 -55 -66 -108 -49 -157 10 -31 10 -40 0 -44 -21 -7 -13 -30
16 -40 15 -6 57 -22 94 -36 37 -13 89 -28 115 -32 63 -9 93 -21 93 -36 0 -9
-3 -8 -10 2 -8 13 -10 12 -10 -3 0 -12 -5 -16 -12 -11 -7 3 -1 -5 14 -20 15
-14 31 -26 37 -26 5 0 19 -11 32 -25 32 -33 42 -31 62 11 20 41 15 54 -19 54
-37 0 -38 21 -4 86 37 70 81 114 114 114 34 0 51 -23 30 -41 -12 -10 -15 -24
-11 -52 4 -32 2 -40 -13 -44 -44 -11 -25 -63 22 -63 12 0 18 -8 18 -25 0 -27
18 -73 37 -93 18 -18 11 -26 -37 -42 -23 -7 -43 -16 -45 -20 -2 -4 34 -41 80
-84 47 -43 85 -83 85 -90 0 -8 13 -19 29 -26 16 -6 63 -49 105 -95 61 -67 83
-84 113 -90 61 -12 115 -18 168 -19 45 -1 50 1 53 22 2 13 -3 31 -10 40 -36
42 -46 139 -23 210 6 18 4 21 -9 16 -26 -10 -56 24 -56 62 0 18 -5 45 -11 61
-7 15 -15 43 -18 61 l-6 32 -56 -44 c-31 -25 -67 -64 -81 -88 -24 -43 -24 -43
-73 -39 -46 3 -54 8 -100 57 -28 30 -56 54 -63 54 -7 0 -12 6 -12 13 0 27 38
48 96 54 65 6 79 14 100 54 22 43 -17 151 -84 230 -58 68 -59 89 -2 89 30 0
39 4 43 21 5 19 11 21 44 15 21 -3 62 -9 92 -12 l54 -7 -7 29 c-4 16 -11 30
-16 32 -5 2 -5 14 1 28 13 35 11 100 -3 127 -7 12 -35 46 -61 75 -50 55 -55
75 -19 80 11 2 34 18 49 35 16 18 41 38 56 45 28 12 28 11 52 -41 34 -73 40
-110 22 -128 -8 -9 -18 -33 -21 -56 l-7 -40 58 -18 c32 -10 64 -23 72 -29 13
-11 16 -8 72 63 18 23 19 23 64 8 48 -17 51 -16 34 14 -8 15 -7 24 3 37 9 11
10 14 1 8 -7 -4 -13 -3 -13 2 0 5 -14 15 -30 22 -41 17 -49 35 -38 82 6 28 4
56 -7 100 -16 61 -14 81 7 60 18 -18 63 -15 80 6 21 23 30 77 18 107 -7 18 -6
25 3 25 8 0 9 3 1 8 -24 16 -54 148 -52 229 l3 78 -30 2 c-16 0 -51 -3 -76 -7z
m17 -148 c22 -14 25 -48 6 -65 -18 -16 -20 -16 -45 4 -31 24 -33 32 -11 53 17
17 33 20 50 8z m-372 -247 c9 -14 13 -25 10 -25 -4 0 1 -10 12 -22 10 -12 14
-18 8 -15 -7 4 -17 -5 -23 -22 -12 -27 -20 -30 -63 -22 -12 2 -9 89 2 96 6 4
7 11 4 17 -4 7 -2 8 4 4 7 -4 12 -2 12 3 0 19 17 12 34 -14z m111 5 c3 -5 -1
-10 -9 -10 -9 0 -16 5 -16 10 0 6 4 10 9 10 6 0 13 -4 16 -10z m32 -92 c-3 -8
-6 -5 -6 6 -1 11 2 17 5 13 3 -3 4 -12 1 -19z m-319 -622 c-12 -19 -28 -32
-35 -29 -17 7 -16 22 1 29 8 3 12 12 10 19 -3 7 3 15 13 17 31 7 33 -2 11 -36z
m7 -106 c-3 -5 -22 -9 -41 -8 -22 1 -30 4 -22 9 18 12 70 11 63 -1z m31 -41
c7 -13 -19 -43 -34 -38 -12 5 3 49 17 49 5 0 13 -5 17 -11z m267 -471 c-1 -18
-2 -36 -2 -40 -2 -14 -31 -8 -37 6 -5 13 23 65 36 66 3 0 4 -15 3 -32z"/>
<path d="M14216 4991 c-3 -5 5 -16 19 -25 36 -23 47 -20 33 9 -11 24 -41 34
-52 16z"/>
<path d="M14290 4940 c0 -5 5 -10 11 -10 5 0 7 5 4 10 -3 6 -8 10 -11 10 -2 0
-4 -4 -4 -10z"/>
<path d="M16199 4926 c-8 -12 -4 -42 6 -52 34 -34 90 -3 62 34 -9 13 -62 27
-68 18z"/>
<path d="M16380 4916 c0 -19 30 -29 47 -15 11 10 11 14 1 20 -20 13 -48 10
-48 -5z"/>
<path d="M16030 4863 c-10 -12 -11 -18 -2 -21 7 -2 10 -8 6 -13 -9 -15 53 -10
90 8 28 13 33 19 25 30 -16 19 -100 16 -119 -4z"/>
<path d="M16120 4735 c-8 -9 -8 -15 -2 -15 18 0 42 12 42 21 0 14 -26 10 -40
-6z"/>
<path d="M16352 4687 c-7 -8 -7 -18 -2 -27 8 -13 10 -12 10 3 0 9 5 17 10 17
6 0 10 5 10 10 0 14 -16 12 -28 -3z"/>
<path d="M16320 4660 c0 -5 5 -10 10 -10 6 0 10 5 10 10 0 6 -4 10 -10 10 -5
0 -10 -4 -10 -10z"/>
<path d="M16346 4598 c8 -28 34 -66 34 -52 0 6 -5 25 -11 43 -12 35 -34 44
-23 9z"/>
<path d="M12190 4589 c0 -11 5 -17 10 -14 6 3 10 13 10 21 0 8 -4 14 -10 14
-5 0 -10 -9 -10 -21z"/>
<path d="M16290 4486 c0 -2 7 -6 15 -10 8 -3 15 -1 15 4 0 6 -7 10 -15 10 -8
0 -15 -2 -15 -4z"/>
<path d="M17022 4229 c-13 -11 -33 -21 -45 -22 -12 -1 -28 -7 -35 -14 -22 -21
-42 -15 -42 12 0 43 -43 33 -106 -27 -30 -28 -52 -53 -49 -56 3 -3 -8 -13 -24
-23 -34 -21 -94 -92 -98 -118 -1 -10 -11 -39 -22 -64 -11 -26 -16 -47 -12 -47
5 0 7 -9 4 -21 -5 -18 -2 -19 23 -13 16 4 35 11 42 17 19 15 28 -1 14 -23 -11
-18 -8 -21 22 -34 18 -8 37 -19 40 -25 15 -24 34 -8 64 57 18 37 32 73 32 80
0 17 16 15 47 -5 26 -17 27 -17 20 0 -4 10 -7 23 -7 28 0 6 -4 7 -10 4 -10 -6
-13 10 -10 58 1 15 -3 27 -9 27 -6 0 -11 4 -11 9 0 5 24 8 54 6 l54 -3 -5 53
c-7 67 2 106 22 99 8 -4 15 -1 15 5 0 6 10 11 23 11 18 0 19 -2 7 -10 -8 -5
-10 -10 -4 -10 6 0 16 -11 22 -25 10 -21 9 -26 -8 -35 -16 -9 -20 -21 -20 -70
0 -37 -4 -60 -12 -63 -7 -3 -1 -6 14 -6 37 -1 58 -11 52 -24 -2 -7 8 -18 23
-25 46 -21 64 -38 57 -56 -3 -9 -16 -16 -29 -16 -43 0 -229 -95 -219 -112 3
-4 0 -8 -7 -8 -8 0 -8 -4 1 -15 7 -8 23 -15 36 -15 34 0 30 -20 -16 -91 -22
-34 -40 -72 -40 -83 1 -21 1 -21 13 1 7 12 14 22 17 21 13 0 60 26 60 34 0 36
125 158 197 193 l52 25 -1 47 c-1 48 7 86 35 178 12 36 12 45 3 33 -14 -19
-62 -26 -50 -7 4 8 1 8 -14 0 -25 -13 -29 -8 -63 94 -33 99 -54 115 -97 74z
m-152 -159 c8 -16 8 -20 -4 -20 -9 0 -22 -12 -30 -27 -14 -26 -15 -27 -16 -5
0 12 5 22 10 22 6 0 10 7 10 16 0 9 5 12 13 8 8 -5 8 -2 -2 9 -8 11 -9 17 -3
17 6 0 16 -9 22 -20z m-162 -115 c-6 -14 -16 -25 -22 -25 -6 0 -4 -5 4 -10 12
-8 11 -10 -6 -10 -12 0 -27 6 -33 14 -9 11 -6 18 16 35 40 29 56 28 41 -4z"/>
<path d="M16960 3975 c0 -8 5 -15 10 -15 6 0 10 7 10 15 0 8 -4 15 -10 15 -5
0 -10 -7 -10 -15z"/>
<path d="M12915 3750 c-3 -5 1 -10 10 -10 9 0 13 5 10 10 -3 6 -8 10 -10 10
-2 0 -7 -4 -10 -10z"/>
<path d="M16786 3751 c-3 -4 5 -6 18 -4 13 3 33 0 45 -6 11 -7 21 -8 21 -3 0
18 -74 29 -84 13z"/>
<path d="M14495 3623 c-11 -3 -41 -20 -68 -39 -26 -19 -54 -34 -62 -34 -8 0
-15 -5 -15 -10 0 -6 -12 -16 -27 -23 -16 -6 -30 -14 -33 -17 -14 -16 -59 -38
-89 -45 -50 -11 -91 -12 -91 -3 0 5 -11 13 -25 18 -14 5 -25 16 -25 23 0 23
-35 47 -66 47 -32 0 -74 -37 -74 -65 0 -8 -4 -15 -10 -15 -5 0 -7 -6 -4 -14 6
-14 -19 -47 -83 -112 -32 -33 -50 -65 -78 -141 -19 -54 -47 -125 -60 -158 -28
-68 -34 -127 -17 -168 7 -16 12 -35 12 -43 0 -9 5 -12 12 -8 7 5 8 3 2 -7 -4
-8 -10 -23 -11 -33 -2 -11 -11 -40 -19 -65 -10 -30 -18 -97 -21 -188 -5 -122
-3 -144 10 -149 12 -4 13 -12 7 -35 -6 -20 -5 -27 2 -23 7 4 9 -9 7 -40 -2
-25 0 -46 4 -46 5 0 6 -7 3 -16 -3 -8 -1 -25 5 -37 8 -13 8 -22 2 -24 -13 -5
-5 -75 9 -84 6 -4 7 -12 4 -18 -4 -6 -2 -11 4 -11 6 0 8 -5 4 -11 -3 -6 0 -15
7 -20 11 -7 11 -9 1 -9 -10 0 -10 -4 2 -15 10 -11 14 -30 11 -67 -2 -28 1 -60
6 -70 7 -14 7 -24 -2 -34 -9 -11 -8 -14 4 -14 8 0 17 -9 20 -20 3 -11 2 -20
-2 -20 -4 0 -6 -19 -4 -43 2 -23 -1 -64 -6 -90 -5 -26 -5 -49 -2 -52 4 -2 6
-22 4 -44 -1 -22 8 -86 21 -142 19 -78 22 -108 14 -128 -6 -14 -12 -41 -15
-60 -3 -19 -10 -40 -17 -48 -49 -60 -103 -106 -149 -127 -31 -14 -58 -30 -62
-35 -3 -6 -13 -11 -21 -11 -9 0 -30 -11 -47 -24 -34 -25 -61 -35 -117 -42 -53
-7 -57 -16 -58 -108 0 -64 -6 -94 -21 -124 -22 -43 -21 -43 -152 -57 -68 -7
-78 -25 -50 -89 27 -60 61 -179 62 -212 0 -16 0 -50 0 -76 -1 -25 4 -59 9 -74
8 -21 7 -31 -6 -45 -13 -15 -14 -22 -5 -33 9 -11 8 -17 -4 -29 -8 -9 -15 -28
-15 -44 0 -22 2 -25 10 -13 6 10 10 11 10 3 0 -7 12 -13 26 -13 25 0 26 2 21
38 -4 20 -2 55 4 77 6 22 11 48 12 58 1 9 5 17 10 17 5 0 7 6 4 14 -3 8 1 17
9 20 8 3 21 20 29 38 18 41 33 59 67 81 40 25 80 21 150 -17 47 -25 86 -37
153 -47 50 -7 114 -23 142 -36 69 -30 104 -24 222 35 97 49 201 113 201 125 0
6 3 7 7 4 3 -4 13 -1 21 5 8 7 19 13 26 14 34 6 146 68 174 97 l33 35 -5 95
c-3 58 -2 99 4 102 6 3 10 12 10 20 0 8 4 24 9 37 5 13 9 26 10 31 0 4 7 20
16 37 18 35 19 87 2 116 -15 27 -71 74 -87 74 -7 0 -10 7 -6 15 3 8 -4 23 -14
33 -29 27 -30 114 -1 152 11 16 21 38 21 49 0 18 7 34 46 114 26 50 34 97 21
118 -9 15 -7 23 13 44 21 22 22 29 12 45 -8 13 -8 20 -2 20 6 0 15 11 20 25 5
14 15 24 22 23 6 -2 15 15 20 38 7 36 12 41 32 37 17 -4 28 3 42 24 10 15 17
31 16 35 -1 4 11 3 26 -2 24 -9 25 -8 10 4 -22 16 -24 30 -4 23 22 -9 66 16
66 37 0 12 5 16 15 12 8 -3 14 0 12 7 -1 6 8 13 20 15 14 2 20 8 16 18 -3 9 2
14 16 14 12 0 21 -6 21 -15 0 -19 2 -19 43 5 25 15 43 19 63 14 22 -6 26 -4
21 8 -4 12 0 14 14 11 15 -4 19 0 19 20 0 14 5 27 11 29 6 2 11 17 11 33 0 17
6 41 12 55 7 14 11 33 8 44 -2 10 1 22 8 26 6 4 12 17 13 28 1 12 5 22 9 22 4
0 5 7 2 15 -4 8 -1 15 5 15 6 0 11 6 11 14 0 8 6 21 13 28 37 37 65 114 82
218 3 19 19 60 35 91 17 31 30 65 30 75 0 16 2 17 10 4 9 -13 10 -13 11 0 1 8
1 18 1 21 -1 3 10 18 24 34 13 15 24 34 24 42 0 7 4 13 8 13 5 0 15 11 22 25
7 14 15 23 18 21 2 -3 15 8 29 25 14 16 29 29 33 29 5 0 22 12 38 28 41 38 62
54 62 47 0 -3 9 4 20 15 11 11 24 20 29 20 6 0 22 11 37 25 15 14 33 25 40 25
7 0 14 3 16 8 8 17 115 74 159 83 27 6 49 14 49 19 0 4 17 11 37 15 21 4 49
13 64 21 32 16 100 32 152 36 20 1 37 5 37 9 0 8 1 8 155 12 60 2 136 -1 168
-6 41 -6 63 -5 70 2 8 8 7 11 -2 11 -7 0 -9 5 -5 12 4 7 3 8 -4 4 -10 -6 -59
18 -72 35 -3 4 -24 10 -47 14 -23 3 -44 13 -47 22 -4 9 -9 13 -13 9 -3 -3 -13
3 -20 14 -8 11 -18 18 -23 15 -4 -3 -10 4 -13 15 -3 12 -14 20 -26 20 -12 0
-21 4 -21 9 0 5 -25 12 -56 16 -31 4 -77 13 -103 21 -55 18 -186 41 -276 48
-22 2 -56 6 -75 10 -19 3 -98 8 -175 11 -77 2 -151 5 -165 6 -14 1 -52 -2 -85
-6 -33 -4 -71 -8 -85 -10 -14 -1 -34 -6 -45 -10 -36 -16 -255 -8 -255 9 0 4
-11 1 -25 -8 -23 -15 -25 -15 -25 -1 0 9 -4 14 -9 11 -5 -4 -12 0 -14 6 -3 8
-6 5 -6 -6 -1 -13 -6 -16 -18 -11 -10 3 -34 8 -53 11 -19 2 -36 9 -38 14 -2 6
-13 10 -25 10 -18 0 -19 -2 -7 -10 9 -6 10 -10 3 -10 -6 0 -15 5 -19 11 -3 6
-15 8 -25 6 -11 -3 -33 2 -50 10 -17 8 -40 12 -54 9 -15 -4 -25 -2 -25 4 0 6
-4 9 -9 6 -5 -3 -11 1 -15 9 -6 16 -8 16 -41 8z"/>
<path d="M16960 2988 c0 -5 -31 -7 -69 -6 -39 2 -67 0 -65 -4 8 -12 -10 -10
-23 3 -9 9 -20 8 -45 -4 -18 -8 -36 -13 -40 -11 -4 3 -8 1 -8 -4 0 -5 -9 -12
-20 -15 -12 -3 -20 -14 -20 -25 0 -24 -16 -38 -23 -20 -3 8 -6 6 -6 -4 -1 -21
9 -22 107 -4 40 7 75 10 78 7 3 -3 103 -7 222 -8 119 -1 225 -4 235 -8 12 -5
17 -2 17 9 0 15 -46 34 -57 23 -3 -4 -14 5 -25 18 -11 14 -28 25 -39 25 -10 0
-19 3 -19 8 0 4 -13 7 -29 8 -16 1 -37 5 -47 9 -26 12 -124 13 -124 3z"/>
<path d="M14568 1753 c7 -3 16 -2 19 1 4 3 -2 6 -13 5 -11 0 -14 -3 -6 -6z"/>
</g>
</svg>
